<?xml version="1.0" encoding="UTF-8"?>
<!DOCTYPE svg PUBLIC "-//W3C//DTD SVG 1.1//EN" "http://www.w3.org/Graphics/SVG/1.1/DTD/svg11.dtd">
<svg xmlns="http://www.w3.org/2000/svg" version="1.1" width="760px" height="570px" style="shape-rendering:geometricPrecision; text-rendering:geometricPrecision; image-rendering:optimizeQuality; fill-rule:evenodd; clip-rule:evenodd" xmlns:xlink="http://www.w3.org/1999/xlink">
<g><path style="opacity:0.949" fill="#e36954" d="M 431.5,152.5 C 428.279,151.889 425.279,150.722 422.5,149C 406.837,148.5 391.17,148.333 375.5,148.5C 375.501,153.003 376.334,157.337 378,161.5C 381.589,166.331 385.423,170.998 389.5,175.5C 380.13,169.602 374.463,161.102 372.5,150C 373.047,149.075 373.713,148.242 374.5,147.5C 391.305,146.527 407.972,146.694 424.5,148C 427.239,149.026 429.572,150.526 431.5,152.5 Z"/></g>
<g><path style="opacity:0.41" fill="#e56d57" d="M 457.5,147.5 C 453.894,147.211 450.394,147.544 447,148.5C 446.501,154.491 446.334,160.491 446.5,166.5C 445.07,166.579 443.736,166.246 442.5,165.5C 440.28,163.437 437.946,161.604 435.5,160C 433.253,158.005 432.253,155.505 432.5,152.5C 436.797,155.129 440.463,158.463 443.5,162.5C 444.839,157.804 445.339,153.137 445,148.5C 446.996,146.941 449.329,146.274 452,146.5C 454.033,146.506 455.866,146.839 457.5,147.5 Z"/></g>
<g><path style="opacity:0.576" fill="#e68e7d" d="M 488.5,165.5 C 490.299,169.058 491.632,172.892 492.5,177C 492.361,178.301 491.695,179.134 490.5,179.5C 489.963,174.814 489.296,170.147 488.5,165.5 Z"/></g>
<g><path style="opacity:0.514" fill="#e88977" d="M 392.5,177.5 C 394.655,177.372 396.655,177.872 398.5,179C 410.847,179.167 423.18,179.667 435.5,180.5C 434.995,181.919 433.995,182.585 432.5,182.5C 432.611,181.883 432.944,181.383 433.5,181C 428.177,180.501 422.844,180.334 417.5,180.5C 410.825,180.666 404.158,180.5 397.5,180C 395.509,179.626 393.842,178.793 392.5,177.5 Z"/></g>
<g><path style="opacity:1" fill="#e9664d" d="M 463.5,147.5 C 474.642,149.648 482.976,155.648 488.5,165.5C 489.296,170.147 489.963,174.814 490.5,179.5C 484.355,180.49 478.022,180.823 471.5,180.5C 462.318,180.173 453.318,180.507 444.5,181.5C 443.341,192.659 443.174,203.992 444,215.5C 444.586,218.019 445.753,220.019 447.5,221.5C 448.814,224.128 450.147,226.795 451.5,229.5C 452.415,231.754 453.748,233.754 455.5,235.5C 453.534,234.559 451.534,233.559 449.5,232.5C 447.872,227.247 445.706,222.247 443,217.5C 442.333,205.167 442.333,192.833 443,180.5C 443.833,179.667 444.667,178.833 445.5,178C 459.846,176.878 474.179,176.711 488.5,177.5C 488.663,175.143 488.497,172.81 488,170.5C 486.024,169.572 484.191,168.405 482.5,167C 484.283,165.933 484.783,164.433 484,162.5C 481.735,160.278 479.568,157.945 477.5,155.5C 475.955,154.548 474.288,154.215 472.5,154.5C 472.67,153.178 472.337,152.011 471.5,151C 468.626,150.058 465.96,148.891 463.5,147.5 Z"/></g>
<g><path style="opacity:0.632" fill="#f6cdbe" d="M 471.5,180.5 C 463.35,181.493 455.017,181.826 446.5,181.5C 446.5,193.167 446.5,204.833 446.5,216.5C 445.732,215.737 445.232,214.737 445,213.5C 444.5,202.839 444.333,192.172 444.5,181.5C 453.318,180.507 462.318,180.173 471.5,180.5 Z"/></g>
<g><path style="opacity:0.655" fill="#e27c68" d="M 473.5,205.5 C 476.025,196.689 472.692,192.689 463.5,193.5C 470.26,190.212 474.594,192.379 476.5,200C 476.387,202.399 475.387,204.232 473.5,205.5 Z"/></g>
<g><path style="opacity:1" fill="#e9684f" d="M 389.5,175.5 C 393.544,174.958 397.211,175.791 400.5,178C 412.833,178.333 425.167,178.667 437.5,179C 438.76,180.814 438.76,182.647 437.5,184.5C 434.692,185.97 431.692,186.803 428.5,187C 427.667,187.833 426.833,188.667 426,189.5C 425.771,192.458 424.604,194.958 422.5,197C 423.448,197.483 424.448,197.649 425.5,197.5C 425.5,201.167 425.5,204.833 425.5,208.5C 422.289,208.988 419.456,208.321 417,206.5C 415.971,210.429 415.137,214.429 414.5,218.5C 413.5,258.161 413.167,297.828 413.5,337.5C 417.198,337.448 420.865,337.114 424.5,336.5C 422.739,337.313 421.072,338.313 419.5,339.5C 416.742,341.048 414.242,340.715 412,338.5C 411.096,296.152 411.43,253.818 413,211.5C 415.329,199.347 421.496,189.68 431.5,182.5C 431.833,182.5 432.167,182.5 432.5,182.5C 433.995,182.585 434.995,181.919 435.5,180.5C 423.18,179.667 410.847,179.167 398.5,179C 396.655,177.872 394.655,177.372 392.5,177.5C 390.973,177.573 389.973,176.906 389.5,175.5 Z"/></g>
<g><path style="opacity:1" fill="#f25a3e" d="M 463.5,147.5 C 465.96,148.891 468.626,150.058 471.5,151C 472.337,152.011 472.67,153.178 472.5,154.5C 474.288,154.215 475.955,154.548 477.5,155.5C 479.568,157.945 481.735,160.278 484,162.5C 484.783,164.433 484.283,165.933 482.5,167C 484.191,168.405 486.024,169.572 488,170.5C 488.497,172.81 488.663,175.143 488.5,177.5C 474.179,176.711 459.846,176.878 445.5,178C 444.667,178.833 443.833,179.667 443,180.5C 442.333,192.833 442.333,205.167 443,217.5C 445.706,222.247 447.872,227.247 449.5,232.5C 451.534,233.559 453.534,234.559 455.5,235.5C 457.662,235.897 458.995,237.231 459.5,239.5C 463.177,240.996 466.844,242.329 470.5,243.5C 473.35,246.107 476.017,248.94 478.5,252C 482.754,252.662 483.42,254.495 480.5,257.5C 484.983,257.39 488.983,259.057 492.5,262.5C 496.594,267.769 500.094,273.436 503,279.5C 503.792,286.671 504.626,293.838 505.5,301C 504.375,308.317 502.708,315.483 500.5,322.5C 498.458,326.524 496.458,330.524 494.5,334.5C 491.833,337.833 488.833,340.833 485.5,343.5C 485.265,342.903 484.765,342.57 484,342.5C 479.259,346.799 473.759,349.465 467.5,350.5C 467.703,352.39 467.037,353.89 465.5,355C 461.608,357.431 457.941,359.931 454.5,362.5C 450.078,364.406 445.744,366.572 441.5,369C 440.619,369.708 439.953,370.542 439.5,371.5C 434.103,372.898 429.437,375.565 425.5,379.5C 421.43,380.524 418.096,382.524 415.5,385.5C 413.801,385.34 412.134,385.506 410.5,386C 406.929,389.19 403.095,392.023 399,394.5C 396.764,402.374 394.264,410.04 391.5,417.5C 389.896,418.287 389.229,419.62 389.5,421.5C 386.5,421.5 383.5,421.5 380.5,421.5C 380.667,362.166 380.5,302.832 380,243.5C 378.127,240.195 376.627,236.695 375.5,233C 374.172,230.833 372.506,229 370.5,227.5C 369.201,225.242 368.201,222.908 367.5,220.5C 366.448,220.649 365.448,220.483 364.5,220C 361.991,216.79 359.158,213.957 356,211.5C 355.51,210.207 355.343,208.873 355.5,207.5C 352.428,207.817 349.428,207.484 346.5,206.5C 345.619,205.029 344.286,204.196 342.5,204C 332.147,202.305 321.814,202.305 311.5,204C 310.944,204.383 310.611,204.883 310.5,205.5C 305.155,207.561 299.822,209.728 294.5,212C 291.092,215.083 287.425,217.749 283.5,220C 282.723,222.628 281.723,225.128 280.5,227.5C 278.876,227.36 277.71,228.027 277,229.5C 274.056,236.282 271.889,243.282 270.5,250.5C 269.833,265.374 268.833,280.374 267.5,295.5C 266.094,295.973 265.427,296.973 265.5,298.5C 264.391,298.557 263.391,298.89 262.5,299.5C 258.062,298.425 256.062,300.092 256.5,304.5C 253.545,305.159 250.545,305.492 247.5,305.5C 247.829,290.99 247.496,276.657 246.5,262.5C 247.221,255.533 247.721,248.533 248,241.5C 248.279,238.543 249.113,235.877 250.5,233.5C 251.458,233.047 252.292,232.381 253,231.5C 256.836,223.001 261.503,215.001 267,207.5C 270.371,204.297 273.538,200.964 276.5,197.5C 294.433,183.433 314.767,178.266 337.5,182C 351.74,184.123 364.073,189.956 374.5,199.5C 375.038,201.117 375.371,202.784 375.5,204.5C 376.93,204.421 378.264,204.754 379.5,205.5C 382.188,208.854 385.188,211.854 388.5,214.5C 393.118,220.067 396.452,226.4 398.5,233.5C 399.638,238.091 400.471,242.757 401,247.5C 401.168,281.669 401.668,315.669 402.5,349.5C 407.985,350.652 413.651,350.818 419.5,350C 423.802,348.631 427.802,346.797 431.5,344.5C 432.812,344.824 433.645,345.491 434,346.5C 435.975,345.749 437.642,345.749 439,346.5C 441.251,342.575 443.917,338.908 447,335.5C 452.4,330.925 457.567,326.259 462.5,321.5C 462.997,318.424 463.33,315.091 463.5,311.5C 465.074,311.063 466.241,310.063 467,308.5C 469.374,304.25 471.874,300.084 474.5,296C 475.996,295.493 477.163,295.993 478,297.5C 477.741,293.32 479.241,289.653 482.5,286.5C 479.074,280.721 474.074,278.721 467.5,280.5C 467.21,285.115 464.877,287.782 460.5,288.5C 460.007,290.806 459.674,293.139 459.5,295.5C 458.127,295.343 456.793,295.51 455.5,296C 455.892,298.354 455.892,300.854 455.5,303.5C 454.681,305.772 454.015,308.106 453.5,310.5C 452.109,312.571 450.276,314.238 448,315.5C 447.616,318.06 446.783,320.394 445.5,322.5C 442.703,325.244 439.369,327.411 435.5,329C 434.743,330.512 433.743,331.846 432.5,333C 429.626,333.942 426.96,335.109 424.5,336.5C 420.865,337.114 417.198,337.448 413.5,337.5C 413.167,297.828 413.5,258.161 414.5,218.5C 415.137,214.429 415.971,210.429 417,206.5C 419.456,208.321 422.289,208.988 425.5,208.5C 425.5,204.833 425.5,201.167 425.5,197.5C 424.448,197.649 423.448,197.483 422.5,197C 424.604,194.958 425.771,192.458 426,189.5C 426.833,188.667 427.667,187.833 428.5,187C 431.692,186.803 434.692,185.97 437.5,184.5C 438.76,182.647 438.76,180.814 437.5,179C 425.167,178.667 412.833,178.333 400.5,178C 397.211,175.791 393.544,174.958 389.5,175.5C 385.423,170.998 381.589,166.331 378,161.5C 376.334,157.337 375.501,153.003 375.5,148.5C 391.17,148.333 406.837,148.5 422.5,149C 425.279,150.722 428.279,151.889 431.5,152.5C 431.833,152.5 432.167,152.5 432.5,152.5C 432.253,155.505 433.253,158.005 435.5,160C 437.946,161.604 440.28,163.437 442.5,165.5C 443.736,166.246 445.07,166.579 446.5,166.5C 446.334,160.491 446.501,154.491 447,148.5C 450.394,147.544 453.894,147.211 457.5,147.5C 459.297,147.065 461.297,147.065 463.5,147.5 Z"/></g>
<g><path style="opacity:0.131" fill="#f8c9ba" d="M 417.5,180.5 C 422.844,180.334 428.177,180.501 433.5,181C 432.944,181.383 432.611,181.883 432.5,182.5C 432.167,182.5 431.833,182.5 431.5,182.5C 426.833,181.833 422.167,181.167 417.5,180.5 Z"/></g>
<g><path style="opacity:1" fill="#ee5c42" d="M 463.5,193.5 C 472.692,192.689 476.025,196.689 473.5,205.5C 463.22,207.223 459.887,203.223 463.5,193.5 Z"/></g>
<g><path style="opacity:1" fill="#e27f6b" d="M 444.5,181.5 C 444.333,192.172 444.5,202.839 445,213.5C 445.232,214.737 445.732,215.737 446.5,216.5C 447.301,218.042 447.634,219.708 447.5,221.5C 445.753,220.019 444.586,218.019 444,215.5C 443.174,203.992 443.341,192.659 444.5,181.5 Z"/></g>
<g><path style="opacity:0.965" fill="#e7856e" d="M 493.5,192.5 C 498.316,191.35 503.316,191.184 508.5,192C 510.007,192.837 510.507,194.004 510,195.5C 504.985,200.682 499.819,205.682 494.5,210.5C 493.522,210.023 492.689,209.357 492,208.5C 491.184,203.316 491.35,198.316 492.5,193.5C 492.334,197.846 492.501,202.179 493,206.5C 493.561,207.022 494.228,207.355 495,207.5C 497.525,205.971 499.358,203.804 500.5,201C 504.57,200.101 506.57,197.601 506.5,193.5C 502.202,192.8 497.869,192.467 493.5,192.5 Z"/></g>
<g><path style="opacity:0.404" fill="#f9c8b9" d="M 336.5,206.5 C 313.683,202.926 295.017,209.926 280.5,227.5C 281.723,225.128 282.723,222.628 283.5,220C 287.425,217.749 291.092,215.083 294.5,212C 299.822,209.728 305.155,207.561 310.5,205.5C 318.118,204.4 325.785,204.233 333.5,205C 334.737,205.232 335.737,205.732 336.5,206.5 Z"/></g>
<g><path style="opacity:0.714" fill="#e07c65" d="M 463.5,193.5 C 459.887,203.223 463.22,207.223 473.5,205.5C 468.898,208.484 464.732,207.818 461,203.5C 459.863,199.537 460.697,196.204 463.5,193.5 Z"/></g>
<g><path style="opacity:1" fill="#ed5c41" d="M 493.5,192.5 C 497.869,192.467 502.202,192.8 506.5,193.5C 506.57,197.601 504.57,200.101 500.5,201C 499.358,203.804 497.525,205.971 495,207.5C 494.228,207.355 493.561,207.022 493,206.5C 492.501,202.179 492.334,197.846 492.5,193.5C 492.5,192.833 492.833,192.5 493.5,192.5 Z"/></g>
<g><path style="opacity:0.682" fill="#e99b89" d="M 337.5,206.5 C 343.493,206.997 349.159,208.83 354.5,212C 355.305,213.113 355.972,214.279 356.5,215.5C 350.512,211.672 344.179,208.672 337.5,206.5 Z"/></g>
<g><path style="opacity:0.686" fill="#e27661" d="M 374.5,199.5 C 380.572,203.237 385.239,208.237 388.5,214.5C 385.188,211.854 382.188,208.854 379.5,205.5C 378.264,204.754 376.93,204.421 375.5,204.5C 375.371,202.784 375.038,201.117 374.5,199.5 Z"/></g>
<g><path style="opacity:0.471" fill="#f5c4b4" d="M 356.5,215.5 C 359.427,216.757 361.761,218.757 363.5,221.5C 360.573,220.243 358.239,218.243 356.5,215.5 Z"/></g>
<g><path style="opacity:0.924" fill="#e36c55" d="M 351.5,223.5 C 346.993,221.203 342.326,219.036 337.5,217C 328.701,214.677 320.034,215.01 311.5,218C 304.566,220.134 298.233,223.301 292.5,227.5C 298.089,221.101 305.089,216.934 313.5,215C 322.989,213.896 332.323,214.562 341.5,217C 345.411,218.444 348.744,220.611 351.5,223.5 Z"/></g>
<g><path style="opacity:0.396" fill="#f2b3a0" d="M 363.5,221.5 C 365.531,222.539 366.864,224.205 367.5,226.5C 365.457,225.421 364.124,223.754 363.5,221.5 Z"/></g>
<g><path style="opacity:0.706" fill="#e16c54" d="M 276.5,197.5 C 273.538,200.964 270.371,204.297 267,207.5C 261.503,215.001 256.836,223.001 253,231.5C 252.292,232.381 251.458,233.047 250.5,233.5C 255.274,218.592 263.941,206.592 276.5,197.5 Z"/></g>
<g><path style="opacity:1" fill="#ea8d78" d="M 451.5,229.5 C 457.338,234.911 463.671,239.578 470.5,243.5C 466.844,242.329 463.177,240.996 459.5,239.5C 458.995,237.231 457.662,235.897 455.5,235.5C 453.748,233.754 452.415,231.754 451.5,229.5 Z"/></g>
<g><path style="opacity:1" fill="#f15a3f" d="M 351.5,223.5 C 355.188,225.188 357.855,227.855 359.5,231.5C 359.343,232.873 359.51,234.207 360,235.5C 364.695,240.221 367.195,245.888 367.5,252.5C 367.5,282.833 367.5,313.167 367.5,343.5C 366.5,343.5 365.5,343.5 364.5,343.5C 364.414,341.323 363.747,339.323 362.5,337.5C 363.167,336.5 363.833,335.5 364.5,334.5C 357.689,332.836 353.855,328.502 353,321.5C 352.617,322.056 352.117,322.389 351.5,322.5C 347.092,300.471 345.258,278.137 346,255.5C 345.768,254.263 345.268,253.263 344.5,252.5C 343.606,249.608 342.272,246.941 340.5,244.5C 338.453,240.973 335.453,238.639 331.5,237.5C 331.063,235.926 330.063,234.759 328.5,234C 325.5,233.333 322.5,233.333 319.5,234C 315.801,237.142 311.468,239.309 306.5,240.5C 306.719,241.675 306.386,242.675 305.5,243.5C 302.562,242.425 299.562,242.259 296.5,243C 298.81,243.497 301.143,243.663 303.5,243.5C 304.44,247.245 303.94,250.912 302,254.5C 301.5,265.828 301.333,277.162 301.5,288.5C 301.5,289.833 301.5,291.167 301.5,292.5C 297.678,293.18 296.011,295.513 296.5,299.5C 295.5,299.5 294.5,299.5 293.5,299.5C 293.567,300.959 293.234,302.292 292.5,303.5C 289.26,303.768 286.094,304.434 283,305.5C 282.055,305.095 281.388,304.428 281,303.5C 280.831,287.995 280.331,272.661 279.5,257.5C 279.981,245.689 284.315,235.689 292.5,227.5C 298.233,223.301 304.566,220.134 311.5,218C 320.034,215.01 328.701,214.677 337.5,217C 342.326,219.036 346.993,221.203 351.5,223.5 Z"/></g>
<g><path style="opacity:0.557" fill="#f1b19e" d="M 331.5,237.5 C 335.453,238.639 338.453,240.973 340.5,244.5C 328.993,236.094 317.993,236.76 307.5,246.5C 308.927,243.236 311.261,240.736 314.5,239C 320.088,237.711 325.755,237.211 331.5,237.5 Z"/></g>
<g><path style="opacity:1" fill="#e9644b" d="M 331.5,237.5 C 325.755,237.211 320.088,237.711 314.5,239C 311.261,240.736 308.927,243.236 307.5,246.5C 306.312,248.722 305.312,251.055 304.5,253.5C 303.732,254.263 303.232,255.263 303,256.5C 302.83,267.341 302.33,278.008 301.5,288.5C 301.333,277.162 301.5,265.828 302,254.5C 303.94,250.912 304.44,247.245 303.5,243.5C 301.143,243.663 298.81,243.497 296.5,243C 299.562,242.259 302.562,242.425 305.5,243.5C 306.386,242.675 306.719,241.675 306.5,240.5C 311.468,239.309 315.801,237.142 319.5,234C 322.5,233.333 325.5,233.333 328.5,234C 330.063,234.759 331.063,235.926 331.5,237.5 Z"/></g>
<g><path style="opacity:0.29" fill="#f8c4b7" d="M 280.5,227.5 C 277.48,232.88 274.98,238.546 273,244.5C 271.958,255.294 271.125,265.96 270.5,276.5C 270.5,267.833 270.5,259.167 270.5,250.5C 271.889,243.282 274.056,236.282 277,229.5C 277.71,228.027 278.876,227.36 280.5,227.5 Z"/></g>
<g><path style="opacity:0.969" fill="#e2755f" d="M 501.5,228.5 C 506.565,233.277 508.065,238.944 506,245.5C 501.357,249.512 497.023,249.179 493,244.5C 491.503,236.221 491.169,227.888 492,219.5C 493.049,218.483 494.216,218.316 495.5,219C 498.147,221.801 500.147,224.968 501.5,228.5 Z"/></g>
<g><path style="opacity:1" fill="#f15b3f" d="M 501.5,228.5 C 501.547,231.928 502.713,234.928 505,237.5C 505.495,239.473 505.662,241.473 505.5,243.5C 502.281,243.157 500.114,243.824 499,245.5C 496.695,245.516 495.028,244.516 494,242.5C 493.169,235.808 493.336,229.142 494.5,222.5C 496.847,224.581 499.18,226.581 501.5,228.5 Z"/></g>
<g><path style="opacity:1" fill="#e6674e" d="M 470.5,243.5 C 486.175,250.342 497.341,261.675 504,277.5C 505.562,281.014 506.395,284.681 506.5,288.5C 507.011,297.968 506.178,307.301 504,316.5C 503.059,318.727 501.892,320.727 500.5,322.5C 502.708,315.483 504.375,308.317 505.5,301C 504.626,293.838 503.792,286.671 503,279.5C 500.094,273.436 496.594,267.769 492.5,262.5C 488.983,259.057 484.983,257.39 480.5,257.5C 483.42,254.495 482.754,252.662 478.5,252C 476.017,248.94 473.35,246.107 470.5,243.5 Z"/></g>
<g><path style="opacity:1" fill="#f05b40" d="M 335.5,254.5 C 335.667,265.838 335.5,277.172 335,288.5C 334.197,291.244 333.197,293.911 332,296.5C 329.546,298.441 327.713,300.775 326.5,303.5C 325.609,304.11 324.609,304.443 323.5,304.5C 320.167,304.833 316.833,305.167 313.5,305.5C 313.5,288.833 313.5,272.167 313.5,255.5C 314.979,250.035 318.646,247.035 324.5,246.5C 329.865,247 333.532,249.667 335.5,254.5 Z"/></g>
<g><path style="opacity:0.635" fill="#de9380" d="M 270.5,250.5 C 270.5,259.167 270.5,267.833 270.5,276.5C 270.666,280.514 270.499,284.514 270,288.5C 269.844,291.191 269.011,293.524 267.5,295.5C 268.833,280.374 269.833,265.374 270.5,250.5 Z"/></g>
<g><path style="opacity:0.237" fill="#e8806b" d="M 344.5,252.5 C 345.268,253.263 345.768,254.263 346,255.5C 345.258,278.137 347.092,300.471 351.5,322.5C 349.095,318.244 347.595,313.577 347,308.5C 345.815,289.85 344.981,271.184 344.5,252.5 Z"/></g>
<g><path style="opacity:0.325" fill="#dc7c68" d="M 313.5,255.5 C 313.5,272.167 313.5,288.833 313.5,305.5C 316.833,305.167 320.167,304.833 323.5,304.5C 320.486,307.365 316.986,308.032 313,306.5C 312.172,289.328 312.338,272.328 313.5,255.5 Z"/></g>
<g><path style="opacity:0.367" fill="#e3907a" d="M 359.5,231.5 C 364.477,236.45 367.644,242.45 369,249.5C 369.831,281.669 369.664,313.669 368.5,345.5C 368.831,314.329 368.498,283.329 367.5,252.5C 367.195,245.888 364.695,240.221 360,235.5C 359.51,234.207 359.343,232.873 359.5,231.5 Z"/></g>
<g><path style="opacity:0.535" fill="#fbb8a9" d="M 304.5,253.5 C 304.263,265.508 303.763,277.508 303,289.5C 302.768,290.737 302.268,291.737 301.5,292.5C 301.5,291.167 301.5,289.833 301.5,288.5C 302.33,278.008 302.83,267.341 303,256.5C 303.232,255.263 303.732,254.263 304.5,253.5 Z"/></g>
<g><path style="opacity:0.227" fill="#eba291" d="M 335.5,254.5 C 336.66,266.326 336.826,278.326 336,290.5C 334.544,296.117 331.378,300.45 326.5,303.5C 327.713,300.775 329.546,298.441 332,296.5C 333.197,293.911 334.197,291.244 335,288.5C 335.5,277.172 335.667,265.838 335.5,254.5 Z"/></g>
<g><path style="opacity:1" fill="#e8664d" d="M 463.5,311.5 C 467.901,303.032 472.568,294.699 477.5,286.5C 478.404,285.791 478.737,284.791 478.5,283.5C 475.15,283.335 471.817,283.502 468.5,284C 467.748,284.671 467.414,285.504 467.5,286.5C 463.801,290.562 461.135,295.229 459.5,300.5C 458.363,301.789 457.03,302.789 455.5,303.5C 455.892,300.854 455.892,298.354 455.5,296C 456.793,295.51 458.127,295.343 459.5,295.5C 459.674,293.139 460.007,290.806 460.5,288.5C 464.877,287.782 467.21,285.115 467.5,280.5C 474.074,278.721 479.074,280.721 482.5,286.5C 479.241,289.653 477.741,293.32 478,297.5C 477.163,295.993 475.996,295.493 474.5,296C 471.874,300.084 469.374,304.25 467,308.5C 466.241,310.063 465.074,311.063 463.5,311.5 Z"/></g>
<g><path style="opacity:0.417" fill="#fdd5c6" d="M 477.5,286.5 C 474.348,283.959 471.015,283.959 467.5,286.5C 467.414,285.504 467.748,284.671 468.5,284C 471.817,283.502 475.15,283.335 478.5,283.5C 478.737,284.791 478.404,285.791 477.5,286.5 Z"/></g>
<g><path style="opacity:0.282" fill="#f6c1b1" d="M 467.5,286.5 C 465.336,291.5 462.669,296.167 459.5,300.5C 461.135,295.229 463.801,290.562 467.5,286.5 Z"/></g>
<g><path style="opacity:0.873" fill="#dd654a" d="M 367.5,252.5 C 368.498,283.329 368.831,314.329 368.5,345.5C 366.243,346.803 364.41,346.136 363,343.5C 358.126,337.087 354.293,330.087 351.5,322.5C 352.117,322.389 352.617,322.056 353,321.5C 353.855,328.502 357.689,332.836 364.5,334.5C 363.833,335.5 363.167,336.5 362.5,337.5C 363.747,339.323 364.414,341.323 364.5,343.5C 365.5,343.5 366.5,343.5 367.5,343.5C 367.5,313.167 367.5,282.833 367.5,252.5 Z"/></g>
<g><path style="opacity:1" fill="#eb836d" d="M 301.5,292.5 C 300.141,297.573 297.141,301.24 292.5,303.5C 293.234,302.292 293.567,300.959 293.5,299.5C 294.5,299.5 295.5,299.5 296.5,299.5C 296.011,295.513 297.678,293.18 301.5,292.5 Z"/></g>
<g><path style="opacity:0.278" fill="#f0ab99" d="M 506.5,288.5 C 509.091,301.681 507.258,314.348 501,326.5C 499.054,329.42 496.887,332.087 494.5,334.5C 496.458,330.524 498.458,326.524 500.5,322.5C 501.892,320.727 503.059,318.727 504,316.5C 506.178,307.301 507.011,297.968 506.5,288.5 Z"/></g>
<g><path style="opacity:0.078" fill="#fddad7" d="M 267.5,295.5 C 267.573,297.027 266.906,298.027 265.5,298.5C 265.427,296.973 266.094,295.973 267.5,295.5 Z"/></g>
<g><path style="opacity:1" fill="#e47660" d="M 246.5,262.5 C 247.496,276.657 247.829,290.99 247.5,305.5C 250.545,305.492 253.545,305.159 256.5,304.5C 256.062,300.092 258.062,298.425 262.5,299.5C 261.833,300.5 261.167,301.5 260.5,302.5C 257.438,305.119 253.938,307.119 250,308.5C 249,307.833 248,307.167 247,306.5C 246.5,291.837 246.333,277.17 246.5,262.5 Z"/></g>
<g><path style="opacity:0.106" fill="#f6bba8" d="M 265.5,298.5 C 264.415,300.587 262.749,301.92 260.5,302.5C 261.167,301.5 261.833,300.5 262.5,299.5C 263.391,298.89 264.391,298.557 265.5,298.5 Z"/></g>
<g><path style="opacity:0.754" fill="#e69985" d="M 398.5,233.5 C 400.54,237.132 401.707,241.132 402,245.5C 403.151,279.387 403.651,314.054 403.5,349.5C 403.167,349.5 402.833,349.5 402.5,349.5C 401.668,315.669 401.168,281.669 401,247.5C 400.471,242.757 399.638,238.091 398.5,233.5 Z"/></g>
<g><path style="opacity:0.737" fill="#e57c65" d="M 279.5,257.5 C 280.331,272.661 280.831,287.995 281,303.5C 281.388,304.428 282.055,305.095 283,305.5C 286.094,304.434 289.26,303.768 292.5,303.5C 288.748,307.487 284.581,308.154 280,305.5C 279.5,289.503 279.333,273.503 279.5,257.5 Z"/></g>
<g><path style="opacity:0.796" fill="#f1a99b" d="M 459.5,300.5 C 458,304.173 456,307.506 453.5,310.5C 454.015,308.106 454.681,305.772 455.5,303.5C 457.03,302.789 458.363,301.789 459.5,300.5 Z"/></g>
<g><path style="opacity:0.859" fill="#efa08b" d="M 453.5,310.5 C 451.822,315.197 449.156,319.197 445.5,322.5C 446.783,320.394 447.616,318.06 448,315.5C 450.276,314.238 452.109,312.571 453.5,310.5 Z"/></g>
<g><path style="opacity:0.125" fill="#c8715a" d="M 372.5,234.5 C 374.411,234.574 375.578,235.574 376,237.5C 377,241.833 378,246.167 379,250.5C 379.5,307.832 379.667,365.166 379.5,422.5C 378.667,367.001 378.167,311.335 378,255.5C 377.69,248.074 375.856,241.074 372.5,234.5 Z"/></g>
<g><path style="opacity:0.69" fill="#e36249" d="M 391.5,417.5 C 391.579,418.93 391.246,420.264 390.5,421.5C 386.893,422.489 383.226,422.823 379.5,422.5C 379.667,365.166 379.5,307.832 379,250.5C 378,246.167 377,241.833 376,237.5C 375.578,235.574 374.411,234.574 372.5,234.5C 370.833,231.833 369.167,229.167 367.5,226.5C 366.864,224.205 365.531,222.539 363.5,221.5C 361.761,218.757 359.427,216.757 356.5,215.5C 355.972,214.279 355.305,213.113 354.5,212C 349.159,208.83 343.493,206.997 337.5,206.5C 337.167,206.5 336.833,206.5 336.5,206.5C 335.737,205.732 334.737,205.232 333.5,205C 325.785,204.233 318.118,204.4 310.5,205.5C 310.611,204.883 310.944,204.383 311.5,204C 321.814,202.305 332.147,202.305 342.5,204C 344.286,204.196 345.619,205.029 346.5,206.5C 349.428,207.484 352.428,207.817 355.5,207.5C 355.343,208.873 355.51,210.207 356,211.5C 359.158,213.957 361.991,216.79 364.5,220C 365.448,220.483 366.448,220.649 367.5,220.5C 368.201,222.908 369.201,225.242 370.5,227.5C 372.506,229 374.172,230.833 375.5,233C 376.627,236.695 378.127,240.195 380,243.5C 380.5,302.832 380.667,362.166 380.5,421.5C 383.5,421.5 386.5,421.5 389.5,421.5C 389.229,419.62 389.896,418.287 391.5,417.5 Z"/></g>
<g><path style="opacity:0.757" fill="#eb9c88" d="M 445.5,322.5 C 438.999,331.309 430.332,336.976 419.5,339.5C 421.072,338.313 422.739,337.313 424.5,336.5C 426.96,335.109 429.626,333.942 432.5,333C 433.743,331.846 434.743,330.512 435.5,329C 439.369,327.411 442.703,325.244 445.5,322.5 Z"/></g>
<g><path style="opacity:1" fill="#e96e56" d="M 463.5,311.5 C 463.33,315.091 462.997,318.424 462.5,321.5C 457.567,326.259 452.4,330.925 447,335.5C 443.917,338.908 441.251,342.575 439,346.5C 437.642,345.749 435.975,345.749 434,346.5C 433.645,345.491 432.812,344.824 431.5,344.5C 438.67,340.513 445.17,335.513 451,329.5C 455.436,323.608 459.602,317.608 463.5,311.5 Z"/></g>
<g><path style="opacity:0.741" fill="#e67a64" d="M 431.5,344.5 C 427.802,346.797 423.802,348.631 419.5,350C 413.651,350.818 407.985,350.652 402.5,349.5C 402.833,349.5 403.167,349.5 403.5,349.5C 413.215,349.89 422.548,348.223 431.5,344.5 Z"/></g>
<g><path style="opacity:0.867" fill="#ec9682" d="M 485.5,343.5 C 476.01,351.085 465.677,357.418 454.5,362.5C 457.941,359.931 461.608,357.431 465.5,355C 467.037,353.89 467.703,352.39 467.5,350.5C 473.759,349.465 479.259,346.799 484,342.5C 484.765,342.57 485.265,342.903 485.5,343.5 Z"/></g>
<g><path style="opacity:0.282" fill="#f7c1b2" d="M 454.5,362.5 C 450.005,366.251 445.005,369.251 439.5,371.5C 439.953,370.542 440.619,369.708 441.5,369C 445.744,366.572 450.078,364.406 454.5,362.5 Z"/></g>
<g><path style="opacity:0.314" fill="#f7c5b7" d="M 439.5,371.5 C 435.167,374.669 430.5,377.336 425.5,379.5C 429.437,375.565 434.103,372.898 439.5,371.5 Z"/></g>
<g><path style="opacity:0.239" fill="#f9cabb" d="M 425.5,379.5 C 422.506,382 419.173,384 415.5,385.5C 418.096,382.524 421.43,380.524 425.5,379.5 Z"/></g>
<g><path style="opacity:0.251" fill="#f5beae" d="M 415.5,385.5 C 410.508,388.97 405.341,392.304 400,395.5C 397.177,404.459 394.51,413.459 392,422.5C 387.726,425.144 383.559,425.144 379.5,422.5C 383.226,422.823 386.893,422.489 390.5,421.5C 391.246,420.264 391.579,418.93 391.5,417.5C 394.264,410.04 396.764,402.374 399,394.5C 403.095,392.023 406.929,389.19 410.5,386C 412.134,385.506 413.801,385.34 415.5,385.5 Z"/></g>
<g><path style="opacity:0.417" fill="#eba090" d="M 426.5,390.5 C 427.189,400.372 427.856,410.372 428.5,420.5C 428.145,421.522 427.478,422.189 426.5,422.5C 426.5,411.833 426.5,401.167 426.5,390.5 Z"/></g>
<g><path style="opacity:0.027" fill="#fefffe" d="M 350.5,409.5 C 351.833,410.167 351.833,410.167 350.5,409.5 Z"/></g>
<g><path style="opacity:0.012" fill="#fffef8" d="M 371.5,410.5 C 372.525,410.897 372.692,411.563 372,412.5C 371.536,411.906 371.369,411.239 371.5,410.5 Z"/></g>
<g><path style="opacity:0.11" fill="#fff6f6" d="M 349.5,411.5 C 350.573,412.251 350.74,413.251 350,414.5C 349.517,413.552 349.351,412.552 349.5,411.5 Z"/></g>
<g><path style="opacity:0.792" fill="#e2715c" d="M 426.5,390.5 C 426.5,401.167 426.5,411.833 426.5,422.5C 422.833,422.5 419.167,422.5 415.5,422.5C 414.883,422.389 414.383,422.056 414,421.5C 412.264,414.795 410.431,408.128 408.5,401.5C 409.621,398.043 411.954,396.043 415.5,395.5C 418.539,392.462 422.206,390.795 426.5,390.5 Z"/></g>
<g><path style="opacity:1" fill="#f35b3f" d="M 415.5,395.5 C 418.803,394.561 422.136,393.561 425.5,392.5C 425.5,402.167 425.5,411.833 425.5,421.5C 421.894,421.789 418.394,421.456 415,420.5C 414.072,414.287 412.905,408.121 411.5,402C 411.667,400.833 411.833,399.667 412,398.5C 413.729,398.026 414.895,397.026 415.5,395.5 Z"/></g>
<g><path style="opacity:0.541" fill="#e99b8c" d="M 415.5,422.5 C 419.167,422.5 422.833,422.5 426.5,422.5C 422.833,425.167 419.167,425.167 415.5,422.5 Z"/></g>
<g><path style="opacity:0.87" fill="#faf4ef" d="M 372.5,413.5 C 374.724,423.015 370.891,428.681 361,430.5C 352.848,428.694 348.848,423.694 349,415.5C 351.123,424.151 356.623,427.651 365.5,426C 370.73,423.494 373.063,419.327 372.5,413.5 Z"/></g>
</svg>
