<?xml version="1.0" standalone="no"?>
<!DOCTYPE svg PUBLIC "-//W3C//DTD SVG 20010904//EN"
 "http://www.w3.org/TR/2001/REC-SVG-20010904/DTD/svg10.dtd">
<svg version="1.0" xmlns="http://www.w3.org/2000/svg"
 width="760.000000pt" height="570.000000pt" viewBox="0 0 760.000000 570.000000"
 preserveAspectRatio="xMidYMid meet">

<g transform="translate(0.000000,570.000000) scale(0.100000,-0.100000)"
fill="#000000" stroke="none">
<path d="M3764 4169 c16 -99 88 -193 180 -234 46 -21 71 -24 241 -29 105 -3
192 -6 195 -6 3 0 -6 -10 -20 -21 -75 -60 -144 -139 -171 -195 -28 -56 -32
-77 -39 -191 -5 -70 -8 -364 -7 -653 l2 -525 38 2 c51 3 161 63 219 118 57 55
104 122 193 280 37 66 74 128 83 138 19 21 120 25 128 4 9 -25 -202 -375 -288
-479 -50 -60 -167 -139 -249 -168 -80 -27 -236 -40 -243 -19 -2 8 -7 246 -10
529 -5 483 -7 520 -26 590 -38 135 -135 282 -247 375 -84 70 -226 140 -324
161 -107 23 -320 14 -409 -16 -202 -69 -348 -198 -448 -395 -61 -123 -64 -142
-69 -478 -3 -170 -1 -313 3 -317 12 -12 80 19 122 55 60 51 65 69 77 320 10
193 16 239 34 286 94 245 343 388 607 349 97 -14 181 -51 255 -110 102 -82
165 -172 195 -275 16 -54 18 -144 22 -922 l4 -861 31 -4 c60 -7 62 -5 102 135
21 73 42 137 47 144 6 7 47 33 91 59 679 388 759 439 850 542 143 161 169 406
66 607 -61 118 -130 182 -314 290 -126 74 -168 114 -207 192 l-32 66 -4 188
c-4 154 -2 190 9 193 8 3 113 8 234 13 l220 8 -3 30 c-6 53 -39 113 -92 165
-68 69 -117 89 -234 97 l-96 6 0 -33 c0 -45 -21 -160 -29 -159 -3 0 -22 21
-42 47 -19 26 -61 65 -93 87 -70 48 -111 54 -375 54 l-184 1 7 -41z"/>
<path d="M4652 3744 c-46 -32 -16 -104 44 -104 26 0 54 30 54 58 0 21 -43 62
-64 62 -6 0 -22 -7 -34 -16z"/>
<path d="M4940 3692 c0 -38 3 -72 6 -75 6 -6 125 115 132 134 2 5 -28 9 -67 9
l-71 0 0 -68z"/>
<path d="M3115 3517 c-146 -48 -261 -181 -285 -328 -5 -35 -10 -173 -10 -306
0 -238 0 -243 20 -243 28 0 90 33 116 62 12 12 32 43 45 68 21 41 23 63 29
230 6 218 16 246 100 293 95 53 193 46 269 -20 67 -57 70 -71 81 -371 6 -176
15 -289 25 -332 19 -81 93 -232 140 -285 l35 -40 -3 490 -2 490 -30 60 c-43
84 -128 168 -212 207 -61 29 -78 33 -173 35 -67 2 -120 -2 -145 -10z"/>
<path d="M4940 3388 c0 -116 5 -134 40 -148 58 -24 96 29 65 91 -34 67 -87
149 -96 149 -5 0 -9 -42 -9 -92z"/>
<path d="M3202 3190 c-18 -11 -37 -32 -42 -46 -6 -14 -10 -133 -10 -265 0
-234 0 -239 20 -239 30 0 90 33 122 67 51 53 58 87 58 271 0 162 -1 169 -22
189 -27 24 -62 43 -80 43 -7 0 -28 -9 -46 -20z"/>
<path d="M4180 1736 c-67 -39 -70 -50 -38 -163 25 -92 43 -112 92 -99 l26 6 0
145 c0 110 -3 145 -12 144 -7 0 -38 -15 -68 -33z"/>
</g>
</svg>
